<mxfile host="app.diagrams.net" agent="Mozilla/5.0 (Windows NT 10.0; Win64; x64) AppleWebKit/537.36 (KHTML, like Gecko) Chrome/135.0.0.0 Safari/537.36" version="26.2.14">
  <diagram id="C5RBs43oDa-KdzZeNtuy" name="Page-1">
    <mxGraphModel dx="1000" dy="631" grid="1" gridSize="10" guides="1" tooltips="1" connect="1" arrows="1" fold="1" page="1" pageScale="1" pageWidth="827" pageHeight="1169" math="0" shadow="0">
      <root>
        <mxCell id="WIyWlLk6GJQsqaUBKTNV-0" />
        <mxCell id="WIyWlLk6GJQsqaUBKTNV-1" parent="WIyWlLk6GJQsqaUBKTNV-0" />
        <mxCell id="9fUzDkSyvt1TDlnjyZBS-21" value="" style="shape=image;verticalLabelPosition=bottom;labelBackgroundColor=default;verticalAlign=top;aspect=fixed;imageAspect=0;image=data:image/png,iVBORw0KGgoAAAANSUhEUgAAAH0AAAB9CAMAAAC4XpwXAAAAAXNSR0IArs4c6QAAAARnQU1BAACxjwv8YQUAAAAzUExURYxP/5Na/5pl/6Jw/6l7/8an/9vI/+ne//j0/////+LT/8yy//Hp/7+c/7eR/7CG/9S9/2IDI2YAAAAJcEhZcwAAFxEAABcRAcom8z8AAAYHSURBVGhD7ZrZlqwgDEVFxXn6/6+96ySiCAliV9XTdT91U2rIQAjRonh5eXl5eXl5eSmKwpQVKMPxX2Nq27RdfzA0tg6v+Q2mtr7gk2H8+QxqO3kCu667TmSswhu+h6nbQ+44V6Xh4bJe7OBmMSzhXd/ByWZ12zX4uZoHlt/+Qv4ue5hNMZP8MbyiKGa+5uvyzUZqD7tfR/w3RU6uXFRsX12GK2nrZEMOtJzxl6mXlcdpzPE99Q2p6skGtt8gcaR5TRBm6M+usTQL/PoNSKdu3iP8HDZFUR8LrjVFsfWtxWgx00jkmL9QQcIgOpKEdy0Fe1sU5SHPYKj7QvYhCWOoOGGm3SYUk/byGzkrXJWPWbq+75QQmk/9tr7vrjOsvxB7JFxToTkVhhkCUdXH2sPnqvBi8p4+hqbfA+YD35dJ4UXf90cwWiH50dz/HPmI3ITwouv749mNIJ2MP4WDuSBuKZ8pbGdOQaYR5onQa8LBPBZ5K2FMxRewX00TxTwDBYRZ3QN1kMFETAOjIwmOpjA1kotsJThPzFQ3YAlrIWNaemhJSZY3fCWvQ4c/2H6N0tcJhFP+q446S86G+3Oe237o+0F5IrzsImKGfN73lath+3DsDkxZyxTI6mc4mpr2NbOJYVeQe55m3FZ3F/bPeC10qusRQOFYmoTq2PSaWE3MSQ5S81j5QVUdQTzFwslabTjGbA8zHlKkojryivgT8poc3PD8kzVvVT1gYDmvYF6Kiq0aEyKTutYTyUMP7uVR3MHwiqlMoyZA3b+IO9kpErbvh3DsQHQ6AeVlId5ueM8QG76yQ9s2smEPNm3WT0wPQ101NHxoSBcbCY/hieIPAnU4U0rsO0n1JykLgrjoVJlDA6JGaG29WojX/Z6w8Bb7UiOs0ZBbeQfFjiqHNQMLi0vC6gs1ZPDMBKFYAq5PceNALbhXzSgxcFK12K2dOrrHr9uF5eCjmb5UxgXOEON7Js+co6LcjhbcGJe2phiu1hxB3S6dGnwmZRvwn5GEDmBdu9ml5r5U6z1xoL+t2psblfDq0ovlBNKpWHKMp9NQdZSkodIa0sJrypUeJ5u9N7HXNTwHsbzSHZ8tvQql06GlHy01xGiLW/benBD+iuM/kM6dCMIl+opaaIL9haM0yJYO44Vj3CC8Nq6oNxS15pSslh3z8tpcx6GxwQPYJFf1lbBTwkEge55FRZvfJf3IWQ3rKBxT8Nf3HVFrTrZcnd6dfITtcBuX+JEEteb8gkq0XLRp68SBoxYtgHb9c7pdJ9T7m5wdJOLAWdX6HlBDUQr0E3+bvCHOVza9s5VIQynLxk9MEOUrry8oQt0t8rap1tjusF1u0Akb1b3hGnJ2za+rmlDPJm27K3C8H+I5hoPmFH/E1XToo97M3icogDNzBa39jtW/JMBQmxvGa4zn5QocoSnv1Ojl+LZqQk+mCdZ3esE5mqO/B0t7fka794HhyfTe7VnS/fPXtbS1WabzQD1xKp8l/eIeP92i15JcrzEX5bOW62WKfjFhn8UcuCgvVDsxfjkIdd3d8PpD1Wn2R+6Uqp0I3+/+EkNH46HqXLe6QJX37JBTTDmdSwzPya4WTtAac9bLOgvgDISXkgbr3XV3sPhS+48GFHb38QnmDi4zJ8p17nLoEBcbGXg2U8rkkCPPd044JpRzpwBKRnb9kpkquco/XpRrPd0s4DNOGllLjqm4Yc5/az3dLBBH7DWtI6JgRlRx6LMINV422LZIfF7YufcT0Llk4Y92lxAnPtm99Jh76igiT9M7m+iY9ww6vq6Z+eZo62CPw8L7UPj+JtuG1Y4CNR5cvKpvzp9A4tu88sT19fnbg4987jheut0VlnQChOHpeNF+EO0+rk17G/Xc1eGDrfYy7w9wBr99oQr3cDv7SLVfYW+UjEn5iDmup4Nvcz5nYe+nXhDwDPt++qriO/TKlSYgudSsDfd24u+CvoST30+brQ8nmGqdN/eNFb5B+xm1sy5PAuzdLNBt3/Z3xDr635KdTGP9Q7U9zGoH7/vKbmrG5edaB5RlDY7vK19eXl5eXl5e/nP+ARJ9RYtjdvBQAAAAAElFTkSuQmCC;" vertex="1" parent="WIyWlLk6GJQsqaUBKTNV-1">
          <mxGeometry x="210" y="210" width="90" height="90" as="geometry" />
        </mxCell>
        <mxCell id="9fUzDkSyvt1TDlnjyZBS-22" value="" style="shape=image;verticalLabelPosition=bottom;labelBackgroundColor=default;verticalAlign=top;aspect=fixed;imageAspect=0;image=data:image/png,iVBORw0KGgoAAAANSUhEUgAAAH0AAAB9CAMAAAC4XpwXAAAAAXNSR0IArs4c6QAAAARnQU1BAACxjwv8YQUAAAAzUExURYxP/6Jw/5Na/6l7/+ne//////j0/5pl//Hp/7eR/7CG/+LT/9S9/8yy/8an/7+c/9vI/yfOBQsAAAAJcEhZcwAAFxEAABcRAcom8z8AAAK8SURBVGhD7drrcoIwEAXgJWQDRgHf/2k7JxdAgjVcgtPpnj+UFPsFmxtRIolEIpFIJJL/mWpZsBaVddXm1JpNsyxMolrWt2Xh4dSamdkui5PUuOxk39s5uvUXnuhHO1M3Z/rBvlc6U9fV4yx/tImydaJz/Jm9ST/Df7E36kf9hb1ZP+CrxN6h7/TX7F36Hn/V3qlP/ufXulRuuFjau/XR/zxJIBiqU/uAHvx6WbqamrldliEHdKJW9M8RPc3X9c5aixrU1lr0SZw2RCocG2v7groLEd0xeBERxqUHUYPiwd14+EWSv69rhIg6rfUTtdBad0QKxTdMELotqH+31Yn+W0RPI3pGtunq9fRaveH7y2L5Wn05p12hT7fbMvd4/2PJBXrP91CGWQ0T/JO7saCw3jNH7MmMua4bS4rrwLVv6sr4MoW53/Gl9RlOA7NxP458YX2OY40T/gWRL6sPc7yaPZ0FvqxumNtxeHvp7KplZlVWxx3Gvg0Pnd1ncBUrq6OVRx47g+NDOXBTFX7nqZn40NldAl5an/jY2ZGIF9dHvp+uG/HyOnhj3Xlsc3XEL9Cpaa3v7OPuTh3wK3SXftbmplyko82tbAFepKOzL9Z0ofgKvXrg2TnJRToa38uZz3X6WkRPI3pGRE/zz/W+qipMpThgpMNR4RP/8TgU1Bc7pQqnD/eKK3ZKv6sbBKtZYwx0nD7wGZoxZsAKB0u+Yvp3W53ov0X0NKJnBA9la8vVI3q1RWe+90kFdutN7wbpPN2N3isV2KcH+s37uZJmwAZQUoEduhq0/9YV637l2wzvUvdjBYb4tLZV30n7TBV4+gps0ie63U77vFYgX1e3SJu9tM+sArNNovfBg/U90h2WWwdTd+GvZeon0j42VCBXP5H2QQUyuqxiNo+TaZ/6M45BtQQtkUgkEolE8gfyA6mgLjkjCdB/AAAAAElFTkSuQmCC;" vertex="1" parent="WIyWlLk6GJQsqaUBKTNV-1">
          <mxGeometry x="370" y="70" width="90" height="90" as="geometry" />
        </mxCell>
        <mxCell id="9fUzDkSyvt1TDlnjyZBS-23" value="" style="shape=image;verticalLabelPosition=bottom;labelBackgroundColor=default;verticalAlign=top;aspect=fixed;imageAspect=0;image=data:image/png,iVBORw0KGgoAAAANSUhEUgAAAH0AAAB9CAMAAAC4XpwXAAAAAXNSR0IArs4c6QAAAARnQU1BAACxjwv8YQUAAAAzUExURe1xAPCMMPKVQO56EPWvcP////OeUPrbv/727/3t3/SmYPjKn++DIPzkz/nSr/a4gPfBjytdISkAAAAJcEhZcwAAFxEAABcRAcom8z8AAANjSURBVGhD7ZrbtqsqEERz6xhXrv//tXvgLdBMJGjzcMZhPtZKrJRKU8vkcGg0Go1Go9H4f3E8pTnrF1tzkTWu+uXGdNow4KZfbkwn0qcQkT/9elu6FYe7SK81W9bcH9XDr7m78E+tmbLq7sJXve1X3Q+vyuHX3Y8ictSiIevuh6fIS2uGZNyvIvLQoh0Z90MvcteaHTn3v6rhc+51w2fdq4bPulcNn3f/E7nVCp93P/ciby0a0Ym83h4w1t/1WkbUbeIzcRaRixZteGl3iPlB1YLH5+6TDB+rFbhjTFbt4ZisVoCbJKv2cJlitQJcpli1h8sUqxXgMtWJdFqrwQm3VFYrwFvqE1V7uEmyWgEOz6o9XKZYteL4XKJxTFaN6L67OJcpVm1wd9WykfUin/DP9StWLvyl2kbron8PzjHPt1oVy01SbxfnJsnqftwgPXkVhptkrZbxcpuIf3BukqzuxW2g16C/cUxW9zI9nPIPzk2S1X08bpOr1984Jqv7+Ij0w/NoFR6aJKt7cNGnG9w7OD+ptO+X7zl6eHCOad0v3QhbBpt3cI5p3S/dBFu+hfAtOSa3zq0E0QNLjmnbL4PooSXHtGwZ0Xb2/DZ3bpKWFctt2sGx/PAck9UtRNGD880xWd0CtBj/fHNMVjdA/6L0P4TXH3kTLme0qLLh4XJtwj2u01pgyTFtKpZLedLisOfNE4djcvEqhaMH049jWlSsRPRg+nGNtmgZiejhyebw+yvWUKO1GE0/jslqCUONjojuM77G3D1+Z6rRmqteYxzTqa/p6W68KPIkvuONpx9fY/dEeSYeSDmWGh0C04/DuxY0A/duhqVGh9A64Gt8nL7OoHfk8Gq0D44A7pczlw3uXo324SCJW2Rkg7vqkjOJEeDCR1vhzAZ31SVneASkyvVIuXsiemIEpMr1SLl7Inr6+nK5Hih2j6bpSGIEOLhcDxS7RzV6JLEOBrBiDZS6J6LzVj7B/dJR6s5lbTX6SvhS93gjcSTWwUwyfKE7bCSOxDpYSIUvdOdpmrgZviSuV6E7biT56MmPV+a+MXqqX5a5Dw/i9c8Ih18S4nn1cC2D3/m7u9+IQvCe8vnod8z87j4+iQdusA5C3JpEMpfMJ/UL2sx5H9DvGcl+7Eaj0Wg0Go3/PP8A+PUpRSBmHx4AAAAASUVORK5CYII=;" vertex="1" parent="WIyWlLk6GJQsqaUBKTNV-1">
          <mxGeometry x="530" y="75" width="85" height="85" as="geometry" />
        </mxCell>
        <mxCell id="9fUzDkSyvt1TDlnjyZBS-24" value="" style="shape=image;verticalLabelPosition=bottom;labelBackgroundColor=default;verticalAlign=top;aspect=fixed;imageAspect=0;image=data:image/png,iVBORw0KGgoAAAANSUhEUgAAAH0AAAB9CAMAAAC4XpwXAAAAAXNSR0IArs4c6QAAAARnQU1BAACxjwv8YQUAAAAzUExURckl0cwz1NBA19NO2tpp3+GF5eef6/HI8/XW9vzx/P////jk+e678eut7uSS6Ndc3d134m6ttq0AAAAJcEhZcwAAFxEAABcRAcom8z8AAAWCSURBVGhD7VrZsoMoEBUXZMf//9qpbjBiC4YId2qqxvOUUuOxF3qDYXjx4sWLFy9evPg/g7FxQoyM3vpDsGle+CqkSiC1sc6P9NHOYLM70xIY5+lfemGkzFJqrTX9GrPRP7aD+Q+1XK3b/MQOc4/TvLlVfz6gtyN4Ed4r+DbRewfmZUXp6fU2jAapV3fDvGO2aqbXmjCBTqWpoA7oqvgJDL5Wc/cFE0rJP/DjOjilZJ0lmbN58Oe2WJVy9Foe6PBZWPpoNbRSdQFsppwHnq9BpSqX0KqUcFfY6hfkAA5Pr+UAoueU5JQS9Fo9QHOcXsxgLShYV/tNDmi479KXRJ+Vkg2pNzrOQq8TlEQ3heuVAMmRn9+JUBJ9lC0+h+zjEuS/STMl0dt8LrAPQ+RX0jifiVwl0Rt9bmcfhiWmeFSCsW7bvPdTVEZJ9EafO9iHYQzFwxmoiKLojT6XsgNmZ44KCoD3SqK3+tzOzlL9jfPm7LoKKCpB9UXRW31uZ+fKZN+PKIkOPmdCywFdB71bA2QHFSrN8wuuKDrJet8D5hVSqSmUdrDgcixF0d2ZXdL7FYhuO0OmPDngjqLoAxMyAv9bk6so4OUhyC9r9vOLoh9gUJI/IQ8F0/7PjIxl0T9oIMeiVuliVftd9ECeic9VCDFe5HMs+vVuXpn7SAYe00gOMNv1HaHJ+kDT+8MA5Pb6xzrAUhdT8HilhF3ORt7O7FcjNJHDotXw5+WI7zCp2Hz8CvYJZtByXaI6hzDzmByiZTSmd0mSzdTJUyYeQMARz8kh0h4Blm38yLKU3V0VDz7TQg7sxJFjitN0lV/rmGZyYJdVL7gqvp0cK2pBzZnDJZl3IA/1fE0DL4jikbzms+8QXUx846eKX6RSupUc2EO007ftBIiaKn7rQo61DYZqCBuc+vmB85QByGW+FPoJQaGfUKtEfiI7nuKC70R+VNSnal7q1VjLOec2lJsnxSN5WU0/IHEmtlk6lQVg6jVJ/QABv3LS9A3EldnsLGlpwNwsqXA6kkf2kSy4aZ43mMpw5xaw73Kk9p7kkd0o7e7C1qH4ruQhx4W+wCylD2Cf1A6VP5L7BZXSCMzv477gCkJBp4w/RiBHK63fpy0VsNGiobbJrHTArviDHCquDmsOwkhYyd6JQke6K57BFyL5LK+lxiOAFHuOK9gdFM9i5Q9PMqjmusS6UJWq282B0OshuYNZNW4nFFzkR2ArAimmmGNB4XN4DiJPLLKLj/8EeGksZk1+ZIaKP5o1Bs1NH6fDpc4H/+lZjNvoa7lSJu0UuWO4o0Eee4J97DShNXdoYy1EWtQFhATapsJSoV/5AGjTAO8uIzOws4+mOffI5lJfP8GpaoAdv1OKA4I4ICFtappynyO7rQJbn45ba0EtwSKEHAJQH/Z7A0Ixe2lTW8YVKfDdd/kCFZ8j78Z+1xaA4s89MoOKths7vqs0q8QslJKz0Gh3s3ssp0V2VslESs58KDzlwnuxj8O8zyptpmDZtwuY308nSD5CAOzF/plVog4g2B4dBRw+gYMgn1AoHdzryj4M7Lo5cExBj0t2CqrozA6Yr7E2gUhz4B+wA0boJ0SacqQWhi9R5h092X2mfR7xsNGYHD5J0ZMdprGFBV9AH3bcHYjFEv+hVrNd2MM4Zp9UVtNDrdehsoOxCW484YK/Wr8A27oPGIAdQhB5trUbOzhq6VDahMLpfgP6An/Ne4+B9PX8LBzK6kQ+DFMo58sNdAIfSl9Z82wtdpdfeW7/O4JNyz7X6X0w6tgA18YtSYoDWkxyxwE825kbMJHNAaW1FkLrc5aTa2bzpg/YxskXnCBXR1JNf8ApxuQYI9Lq1Tr/58wJxnHyiH/3QO2LFy9evHjx4sV/Hv8A3S5UKQYY+44AAAAASUVORK5CYII=;" vertex="1" parent="WIyWlLk6GJQsqaUBKTNV-1">
          <mxGeometry x="700" y="127.5" width="95" height="95" as="geometry" />
        </mxCell>
        <mxCell id="9fUzDkSyvt1TDlnjyZBS-25" value="" style="shape=image;verticalLabelPosition=bottom;labelBackgroundColor=default;verticalAlign=top;aspect=fixed;imageAspect=0;image=data:image/png,iVBORw0KGgoAAAANSUhEUgAAAH0AAAB9CAMAAAC4XpwXAAAAAXNSR0IArs4c6QAAAARnQU1BAACxjwv8YQUAAAAzUExURXqhFoKnJYutM5OzQqS+X7TKfMXWmd7nxebt0+7z4vf58P///9Xits3cp73Qi6zEbpu5UErhwrsAAAAJcEhZcwAAFxEAABcRAcom8z8AAAQ0SURBVGhD7ZrbsoQoDEUbRASCyP9/7RRBbUUbmqTP1FSN6xEv4bbJBn29Hh4eHh4eHh7+7wghhxUpyot/hRjUqCdjHZyxxs9hiX9XD6HCZMqoF7weh/JJLkJpU8YBlymLUxXC72ogw6HJzng9LvE82EJGtYR5su8KOB0PN1ARcQ/tfIiyvF6gFj1tFbC6dXcDEdbQzi/fd6YKWw08I77QObbpH0YxrhUgx484jG7uDp0RY54GurzwDUJj7JEjYYXxTX/zhWfHTmB81917qeVTf6WvhBS+sxEqDVjnMx+IADCXhXVmAF+WUVkAXFlWRwOMZRkVCQBlWZ0AYMsyKgHAlGV10rhPZSGNxXWP4kAU6oW8XnauOCKvk+w8kddLWMoLDbbEprtXijcibKZAlZcaGIA515uQYxJCTdgCNwJAbxfOAOG15glw89L1vIibIXFBpilU3tBC54mqdq/gfFBfVEHEUe9+xAaB8ukUHD6TFbdn6vw+tK7DpRpiSGbXH12nXafMSNBuPC6Pt57SWpOxF38NbnpPlrlbcFlypyyjgj+Yxs+4SS/D8UnfLziU3HWuSzUGf7Su76DJ7IZz3IztFxxKrvKQlDGqlVjfTBEE93pNP8pyFMGh5Do9wT0UwaFQOjPTPRTBYZ07Hck9FMFlyZVlF2R7PpEEh9Eb7x4MgGltFkmCw8fqb5Z5iWtUsX3HLU3JJafedMs0waHkQll2Iu12UjYpy09EkuCwaXXJ4UYvUfNfNMGh5OrNSj69GZ8mOByxhuDTHsmtPeA/zFCa4G5y7A0qnZGt/svcRiEKDnPshwaVbP7vZt8JLeV8wnQ8qFYBlAYcdyWknXhTcieGOcefTgOQpgat+U3JlewD8G7rCIAr4nQdkwaEzLwZ8L0DkuDSNhLs1abVOdnab9kGADxWwKdeF6nMdQ7+N5K7Y9zst46b4FJK6F3ybm3tNwzrMSOCbU7nAZ2NN8R1KqG2EQA7hxjTTrrzXc0cW+ddgUznmrfuJBkc49d9wJXlF9H1EiZr7dR97Mm3tSg4Il/Z2irkDJfol0kB6wVNW9sgZbje4X7DlFxaq+vmrEpfjr1CtZSZ7hxbwNsHcyXnWX0nmdFZgiPn2A2W4Hps7R1pu8GJzpMcT3BcyfEEx5UcT3AkW3vAE3eQGyRbu8MTHFdyjjflGbb2B4Lj2Vqu4NCYkQW/MAXHs7WBKThe/bmC4+VYruB4krMMvawA+RV8wXFsLV9wKDlL6noxMeSygSeChAUHPz4Te+0AnkWaviVHLHh8wdQbkr4hp3OYbzehQs3rx+fyCon9IMjOY70vxaD2T8ATUSpXhv0wfPsOfP78J2T+4XE/rSH/nPUBdTwIWkPYTHnB+eXLQepBHP7c+4Azfrz5FPszZPkL4x52DuovA5+RcohI+gb8r0V9eHh4eHh4ePhP8w/Qaj6J1MD13QAAAABJRU5ErkJggg==;" vertex="1" parent="WIyWlLk6GJQsqaUBKTNV-1">
          <mxGeometry x="430" y="335" width="90" height="90" as="geometry" />
        </mxCell>
        <mxCell id="9fUzDkSyvt1TDlnjyZBS-26" value="" style="shape=image;verticalLabelPosition=bottom;labelBackgroundColor=default;verticalAlign=top;aspect=fixed;imageAspect=0;image=data:image/png,iVBORw0KGgoAAAANSUhEUgAAAH0AAAB9CAMAAAC4XpwXAAAAAXNSR0IArs4c6QAAAARnQU1BAACxjwv8YQUAAAAzUExURecVe+kkg+1QnPOKvfnE3vrT5v3w9/zi7ve21vSYxf///+oyjOxBlO9epPBtrfJ8tfanzf+HXewAAAAJcEhZcwAAFxEAABcRAcom8z8AAAKMSURBVGhD7Zphc6QgDEAVBGkWV///r70JuAebVQg96M3d5H2yiH0DhARtp0kQBEEQBEEQBOFHmZVejLV2dVrRe6NRXxYyvh60w0C8y9XRP9NOo9jCuO2ilfdq00v0P2m3MezoWvZssPsahp93GgXK7X7RCAtpHAB6zGeQPcxP6L0FMJcRhpE4Wr8A2M+RBw4AoCvSF5z3jTa+wOD3mIee+z4iA81rKbTx7jrrsAEA3M0UfZ/n/bwjCgBON6Lp/T9lO+6Hfi49gDUuZqBi3/7M6DzC7DxxEm5DZAwmZdzZlJfpDr/zuMjss07DxYlo34HzW/EssdJH39EAlrZVwcjlUfndOPjLtFhCAVhXB5eVPkqwAM1ZR1WnNODrdqw87iI6SvSzx11vmvz97P489hz0RoF+9pAcw/D5wdfVPk0eV39l65N9foN049rDvuefO5I9q1exdOfw7UHPDb3+djx1cfsOsGPWYw4+i7rSwrfYsfA72nZN55gPbOzOI+z8gsO0T96TSCjBLjhcexPrv2Y/aE2vo6fpcV6+naoAgHfGu9vvLFwIx0Be2bCtNer62TWAyX4skOy7bmbDc+3vyxf4jsV8sxkQdXi65S37ALuy/Leq7naUs48Xne0zftqzvM3Ot3tjGAeW+Dpv+a+Tya4+yDJ7qjKe9nqxaRPeykxDQSjt92xSkh2PjQVs/mmvSl+71cytdpLsy0rJElayO9rrhXHat4wb4UZdy+mCj9iriL07yW7S5sGNo87reGQabs+yTbCf17FY/uf2rHzEO5FYM4bbi4i9O2KvIvbuiL2K2Lvz1+32UQe70Uc70O0vYt/i9dWnDmeBmvn8b5prLPdriCAIgiAIgiAIQmd+AWn6OEJngjFQAAAAAElFTkSuQmCC;" vertex="1" parent="WIyWlLk6GJQsqaUBKTNV-1">
          <mxGeometry x="227.5" y="435" width="90" height="90" as="geometry" />
        </mxCell>
        <mxCell id="9fUzDkSyvt1TDlnjyZBS-28" value="" style="sketch=0;pointerEvents=1;shadow=0;dashed=0;html=1;strokeColor=none;labelPosition=center;verticalLabelPosition=bottom;verticalAlign=top;align=center;fillColor=#515151;shape=mxgraph.mscae.system_center.admin_console" vertex="1" parent="WIyWlLk6GJQsqaUBKTNV-1">
          <mxGeometry x="70" y="462" width="50" height="36" as="geometry" />
        </mxCell>
        <mxCell id="9fUzDkSyvt1TDlnjyZBS-29" value="" style="sketch=0;outlineConnect=0;fontColor=#232F3E;gradientColor=none;fillColor=#232F3D;strokeColor=none;dashed=0;verticalLabelPosition=bottom;verticalAlign=top;align=center;html=1;fontSize=12;fontStyle=0;aspect=fixed;pointerEvents=1;shape=mxgraph.aws4.user;" vertex="1" parent="WIyWlLk6GJQsqaUBKTNV-1">
          <mxGeometry x="60" y="230" width="50" height="50" as="geometry" />
        </mxCell>
        <mxCell id="9fUzDkSyvt1TDlnjyZBS-31" value="submit.form" style="endArrow=classic;html=1;rounded=0;exitX=1;exitY=0.5;exitDx=0;exitDy=0;entryX=0;entryY=0.5;entryDx=0;entryDy=0;" edge="1" parent="WIyWlLk6GJQsqaUBKTNV-1" source="9fUzDkSyvt1TDlnjyZBS-23" target="9fUzDkSyvt1TDlnjyZBS-24">
          <mxGeometry width="50" height="50" relative="1" as="geometry">
            <mxPoint x="470" y="125" as="sourcePoint" />
            <mxPoint x="540" y="128" as="targetPoint" />
          </mxGeometry>
        </mxCell>
        <mxCell id="9fUzDkSyvt1TDlnjyZBS-32" value="POST /submit" style="endArrow=classic;html=1;rounded=0;entryX=0;entryY=0.5;entryDx=0;entryDy=0;exitX=1;exitY=0.5;exitDx=0;exitDy=0;" edge="1" parent="WIyWlLk6GJQsqaUBKTNV-1" source="9fUzDkSyvt1TDlnjyZBS-21" target="9fUzDkSyvt1TDlnjyZBS-22">
          <mxGeometry width="50" height="50" relative="1" as="geometry">
            <mxPoint x="350" y="230" as="sourcePoint" />
            <mxPoint x="550" y="138" as="targetPoint" />
          </mxGeometry>
        </mxCell>
        <mxCell id="9fUzDkSyvt1TDlnjyZBS-34" value="./deploy" style="endArrow=classic;html=1;rounded=0;exitX=0.88;exitY=0.5;exitDx=0;exitDy=0;entryX=0;entryY=0.5;entryDx=0;entryDy=0;exitPerimeter=0;" edge="1" parent="WIyWlLk6GJQsqaUBKTNV-1" source="9fUzDkSyvt1TDlnjyZBS-28" target="9fUzDkSyvt1TDlnjyZBS-26">
          <mxGeometry width="50" height="50" relative="1" as="geometry">
            <mxPoint x="500" y="155" as="sourcePoint" />
            <mxPoint x="570" y="158" as="targetPoint" />
          </mxGeometry>
        </mxCell>
        <mxCell id="9fUzDkSyvt1TDlnjyZBS-37" value="static website" style="endArrow=classic;startArrow=classic;html=1;rounded=0;entryX=0;entryY=0.5;entryDx=0;entryDy=0;" edge="1" parent="WIyWlLk6GJQsqaUBKTNV-1" source="9fUzDkSyvt1TDlnjyZBS-21" target="9fUzDkSyvt1TDlnjyZBS-25">
          <mxGeometry width="50" height="50" relative="1" as="geometry">
            <mxPoint x="390" y="330" as="sourcePoint" />
            <mxPoint x="440" y="280" as="targetPoint" />
          </mxGeometry>
        </mxCell>
        <mxCell id="9fUzDkSyvt1TDlnjyZBS-38" value="invoke" style="endArrow=classic;startArrow=classic;html=1;rounded=0;entryX=0.008;entryY=0.412;entryDx=0;entryDy=0;entryPerimeter=0;exitX=1;exitY=0.5;exitDx=0;exitDy=0;" edge="1" parent="WIyWlLk6GJQsqaUBKTNV-1" source="9fUzDkSyvt1TDlnjyZBS-22" target="9fUzDkSyvt1TDlnjyZBS-23">
          <mxGeometry width="50" height="50" relative="1" as="geometry">
            <mxPoint x="390" y="330" as="sourcePoint" />
            <mxPoint x="440" y="280" as="targetPoint" />
          </mxGeometry>
        </mxCell>
        <mxCell id="9fUzDkSyvt1TDlnjyZBS-39" value="API Gateway V2" style="text;html=1;align=center;verticalAlign=middle;resizable=0;points=[];autosize=1;strokeColor=none;fillColor=none;" vertex="1" parent="WIyWlLk6GJQsqaUBKTNV-1">
          <mxGeometry x="359" y="160" width="110" height="30" as="geometry" />
        </mxCell>
        <mxCell id="9fUzDkSyvt1TDlnjyZBS-41" value="Lambda" style="text;html=1;align=center;verticalAlign=middle;resizable=0;points=[];autosize=1;strokeColor=none;fillColor=none;" vertex="1" parent="WIyWlLk6GJQsqaUBKTNV-1">
          <mxGeometry x="530" y="160" width="70" height="30" as="geometry" />
        </mxCell>
        <mxCell id="9fUzDkSyvt1TDlnjyZBS-42" value="DynamoDB" style="text;html=1;align=center;verticalAlign=middle;resizable=0;points=[];autosize=1;strokeColor=none;fillColor=none;" vertex="1" parent="WIyWlLk6GJQsqaUBKTNV-1">
          <mxGeometry x="707.5" y="222.5" width="80" height="30" as="geometry" />
        </mxCell>
        <mxCell id="9fUzDkSyvt1TDlnjyZBS-43" value="S3 Bucket" style="text;html=1;align=center;verticalAlign=middle;resizable=0;points=[];autosize=1;strokeColor=none;fillColor=none;" vertex="1" parent="WIyWlLk6GJQsqaUBKTNV-1">
          <mxGeometry x="430" y="425" width="80" height="30" as="geometry" />
        </mxCell>
        <mxCell id="9fUzDkSyvt1TDlnjyZBS-44" value="CloudFront" style="text;html=1;align=center;verticalAlign=middle;resizable=0;points=[];autosize=1;strokeColor=none;fillColor=none;" vertex="1" parent="WIyWlLk6GJQsqaUBKTNV-1">
          <mxGeometry x="210" y="300" width="80" height="30" as="geometry" />
        </mxCell>
        <mxCell id="9fUzDkSyvt1TDlnjyZBS-45" value="User" style="text;html=1;align=center;verticalAlign=middle;resizable=0;points=[];autosize=1;strokeColor=none;fillColor=none;" vertex="1" parent="WIyWlLk6GJQsqaUBKTNV-1">
          <mxGeometry x="60" y="280" width="50" height="30" as="geometry" />
        </mxCell>
        <mxCell id="9fUzDkSyvt1TDlnjyZBS-46" value="Admin" style="text;html=1;align=center;verticalAlign=middle;resizable=0;points=[];autosize=1;strokeColor=none;fillColor=none;" vertex="1" parent="WIyWlLk6GJQsqaUBKTNV-1">
          <mxGeometry x="65" y="498" width="60" height="30" as="geometry" />
        </mxCell>
        <mxCell id="9fUzDkSyvt1TDlnjyZBS-47" value="Cloud Formation" style="text;html=1;align=center;verticalAlign=middle;resizable=0;points=[];autosize=1;strokeColor=none;fillColor=none;" vertex="1" parent="WIyWlLk6GJQsqaUBKTNV-1">
          <mxGeometry x="217.5" y="518" width="110" height="30" as="geometry" />
        </mxCell>
        <mxCell id="9fUzDkSyvt1TDlnjyZBS-51" value="HTTP Request" style="endArrow=classic;startArrow=classic;html=1;rounded=0;" edge="1" parent="WIyWlLk6GJQsqaUBKTNV-1" source="9fUzDkSyvt1TDlnjyZBS-29">
          <mxGeometry width="50" height="50" relative="1" as="geometry">
            <mxPoint x="390" y="330" as="sourcePoint" />
            <mxPoint x="210" y="260" as="targetPoint" />
          </mxGeometry>
        </mxCell>
      </root>
    </mxGraphModel>
  </diagram>
</mxfile>
